# xmcd CD database file
#
# Track frame offsets:
#	150
#	12810
#	31406
#	45730
#	63541
#	77254
#	87597
#	101913
#	114986
#	125678
#	139726
#	152085
#	164981
#	184235
#	202341
#	220021
#	238815
#	262726
#
# Disc length: 3675 seconds
#
# Revision: 0
# Processed by: cddbd v1.5.2PL0 Copyright (c) Steve Scherf et al.
# Submitted via: CDex 1.70beta2
#
DISCID=040e5912
DTITLE=Various Artist - Jazzy Winter CD 1
DYEAR=2009
DGENRE=Jazz
TTITLE0=Louis Armstrong - 'Zat You, Santa Claus?
TTITLE1=Shirley Horn - Walking In The Winter Wonderland
TTITLE2=Jimmy Smith - Jingle Bells
TTITLE3=Billie Holiday - I've Got My Love To Keep Me Warm
TTITLE4=Ella Fitzgerald - White Christmas
TTITLE5=Louis Armstrong - What A Wonderful World
TTITLE6=The Swingle Singers - God Rest Ye Merry Gentlemen
TTITLE7=Nina Simone - I'm Blessed
TTITLE8=Dinah Washington - Silent Night
TTITLE9=Ledisi - What Are You Doing New Year's Eve?
TTITLE10=Mel Torme - The Christmas Song
TTITLE11=Aaron Neville - Please Come Home For Christmas
TTITLE12=Will Downing - Christmas, Love And You
TTITLE13=Roy Ayers - He Ain't Heavy He's My Brother
TTITLE14=B.B. King - Merry Christmas Baby
TTITLE15=David Benoit - When The Winter's Gone
TTITLE16=Stan Getz - Winter Moon
TTITLE17=Yello - Jingle Bells (Bonus Track)
EXTD=YEAR: 2009
EXTT0=
EXTT1=
EXTT2=
EXTT3=
EXTT4=
EXTT5=
EXTT6=
EXTT7=
EXTT8=
EXTT9=
EXTT10=
EXTT11=
EXTT12=
EXTT13=
EXTT14=
EXTT15=
EXTT16=
EXTT17=
PLAYORDER=
